<svg width="512" height="512" viewBox="0 0 512 512" fill="none" xmlns="http://www.w3.org/2000/svg">
<g clip-path="url(#clip0_1_13)">
<path d="M380.718 50.2301L380.947 52.3006L382.967 52.8092C409.464 59.4809 429 83.4047 429 112C429 117.737 428.235 123.354 426.719 128.562L425.82 131.655L428.969 132.333C456.41 138.24 477 162.738 477 192C477 206.308 472.138 219.451 463.855 229.829L461.489 232.793L464.919 234.413C491.006 246.734 509 273.301 509 304C509 336.918 488.405 365.022 459.341 375.993L456.605 377.026L457.567 379.787C459.761 386.082 461 392.949 461 400C461 433.643 433.643 461 400 461C394.648 461 389.411 460.331 384.48 459.003L381.088 458.09L380.717 461.583C377.877 488.276 355.347 509 328 509C298.757 509 275 485.243 275 456V56C275 26.7569 298.757 3 328 3C355.345 3 377.784 23.7237 380.718 50.2301Z" fill="#C5CAD8" stroke="#586483" stroke-width="6"/>
<path d="M131.283 461.583L130.912 458.09L127.52 459.003C122.589 460.331 117.352 461 112 461C78.3569 461 51 433.643 51 400C51 392.949 52.2392 386.082 54.4329 379.787L55.3952 377.026L52.6595 375.993C23.5948 365.022 3 336.918 3 304C3 273.301 20.9938 246.734 47.0812 234.413L50.5107 232.793L48.1447 229.829C39.8616 219.451 35 206.308 35 192C35 162.745 55.5836 138.337 83.0411 132.331L86.1774 131.645L85.2806 128.562C83.7654 123.354 83 117.737 83 112C83 83.5066 102.635 59.4801 129.035 52.8086L131.06 52.2967L131.283 50.2196C134.121 23.7305 156.647 3 184 3C213.243 3 237 26.7569 237 56V456C237 485.243 213.243 509 184 509C156.653 509 134.123 488.276 131.283 461.583Z" fill="#43CDF0" stroke="#586483" stroke-width="6"/>
</g>
<defs>
<clipPath id="clip0_1_13">
<rect width="512" height="512" fill="white"/>
</clipPath>
</defs>
</svg>
